# xmcd CD database file
#
# Track frame offsets:
#	183
#	10383
#	26463
#	41453
#	57858
#	75183
#	89058
#	102558
#	115943
#	129783
#	142833
#	155883
#	169133
#	182958
#
# Disc length: 2617 seconds
#
# Revision: 0
# Processed by: cddbd v1.5.1PL0 Copyright (c) Steve Scherf et al.
# Submitted via: CDex 1.51
#
DISCID=b10a370e
DTITLE=Errol Garner - The Best Of Errol Garner
DYEAR=1995
DGENRE=Jazz
TTITLE0=Indiana
TTITLE1=Robbin's Nest
TTITLE2=Ain't She Sweet
TTITLE3=These Foolish Things
TTITLE4=Garner's Escape
TTITLE5=September Song
TTITLE6=Rosalie
TTITLE7=Dark Eyesky
TTITLE8=Everthing Happens to Me
TTITLE9=A Cottage for Sale
TTITLE10=Play Fiddle Play
TTITLE11=All The Things You Are
TTITLE12=Yesterdays
TTITLE13=Jumpin' At The Deuces
EXTD=YEAR: 1995
EXTT0=
EXTT1=
EXTT2=
EXTT3=
EXTT4=
EXTT5=
EXTT6=
EXTT7=
EXTT8=
EXTT9=
EXTT10=
EXTT11=
EXTT12=
EXTT13=
PLAYORDER=
